<svg width="0" height="0" class="hidden">
  <symbol fill="none" xmlns="http://www.w3.org/2000/svg" viewBox="0 0 24 24" id="linkedin">
    <path d="M20.447 20.452H16.893V14.883C16.893 13.555 16.866 11.846 15.041 11.846C13.188 11.846 12.905 13.291 12.905 14.785V20.452H9.351V9H12.765V10.561H12.811C13.288 9.661 14.448 8.711 16.181 8.711C19.782 8.711 20.448 11.081 20.448 14.166L20.447 20.452ZM5.337 7.433C4.193 7.433 3.274 6.507 3.274 5.368C3.274 4.23 4.194 3.305 5.337 3.305C6.477 3.305 7.401 4.23 7.401 5.368C7.401 6.507 6.476 7.433 5.337 7.433ZM7.119 20.452H3.555V9H7.119V20.452ZM22.225 0H1.771C0.792 0 0 0.774 0 1.729V22.271C0 23.227 0.792 24 1.771 24H22.222C23.2 24 24 23.227 24 22.271V1.729C24 0.774 23.2 0 22.222 0H22.225Z" fill="#FF5555"></path>
  </symbol>
  <symbol fill="none" xmlns="http://www.w3.org/2000/svg" viewBox="0 0 23 28" id="location">
    <g clip-path="url(#clip0_20_1810)">
      <path d="M11.4999 17.0859C14.4553 17.0859 16.8588 14.6893 16.8588 11.7422C16.8588 8.79511 14.4553 6.39844 11.4999 6.39844C8.54438 6.39844 6.14088 8.79511 6.14088 11.7422C6.14088 14.6893 8.54438 17.0859 11.4999 17.0859ZM11.4999 9.07031C12.9776 9.07031 14.1793 10.2686 14.1793 11.7422C14.1793 13.2157 12.9776 14.4141 11.4999 14.4141C10.0221 14.4141 8.82037 13.2157 8.82037 11.7422C8.82037 10.2686 10.0221 9.07031 11.4999 9.07031Z" fill="#FF5722"></path>
      <path d="M10.4412 27.525C10.6679 27.6864 10.9396 27.7732 11.2182 27.7732C11.4969 27.7732 11.7685 27.6864 11.9953 27.525C12.4026 27.2377 21.975 20.3456 21.9362 11.7422C21.9362 5.84937 17.1278 1.05469 11.2182 1.05469C5.30861 1.05469 0.500271 5.84937 0.500271 11.7355C0.461418 20.3456 10.0339 27.2377 10.4412 27.525ZM11.2182 3.72656C15.6514 3.72656 19.2567 7.32157 19.2567 11.7489C19.2848 17.6778 13.3779 23.0015 11.2182 24.7475C9.05989 23.0001 3.15162 17.6751 3.17976 11.7422C3.17976 7.32157 6.78501 3.72656 11.2182 3.72656Z" fill="#FF5722"></path>
    </g>
    <defs>
      <clipPath id="clip0_20_1810">
        <rect width="22" height="27" fill="white" transform="translate(0.5 0.914062)"></rect>
      </clipPath>
    </defs>
  </symbol>
  <symbol fill="none" xmlns="http://www.w3.org/2000/svg" viewBox="0 0 16 27" id="mobile">
    <path d="M12.2223 0.675049H3.33346C1.48901 0.675049 0.00012207 2.22689 0.00012207 4.14931V22.6787C0.00012207 24.6012 1.48901 26.153 3.33346 26.153H12.2223C14.0668 26.153 15.5557 24.6012 15.5557 22.6787V4.14931C15.5557 2.22689 14.0668 0.675049 12.2223 0.675049ZM10.0001 23.8368H5.55568V22.6787H10.0001V23.8368ZM13.6112 20.3625H1.94457V4.14931H13.6112V20.3625Z" fill="#FF5722"></path>
  </symbol>
  <symbol fill="none" xmlns="http://www.w3.org/2000/svg" viewBox="0 0 27 22" id="packat">
    <path d="M25.8125 0.601562H1.4375C0.918945 0.601562 0.5 1.02051 0.5 1.53906V20.2891C0.5 20.8076 0.918945 21.2266 1.4375 21.2266H25.8125C26.3311 21.2266 26.75 20.8076 26.75 20.2891V1.53906C26.75 1.02051 26.3311 0.601562 25.8125 0.601562ZM24.6406 3.84766V19.1172H2.60938V3.84766L1.80078 3.21777L2.95215 1.73828L4.20605 2.71387H23.0469L24.3008 1.73828L25.4521 3.21777L24.6406 3.84766ZM23.0469 2.71094L13.625 10.0352L4.20312 2.71094L2.94922 1.73535L1.79785 3.21484L2.60645 3.84473L12.6143 11.626C12.9021 11.8496 13.2561 11.9709 13.6206 11.9709C13.9851 11.9709 14.3391 11.8496 14.627 11.626L24.6406 3.84766L25.4492 3.21777L24.2979 1.73828L23.0469 2.71094Z" fill="#FF5722"></path>
  </symbol>
  <symbol fill="none" xmlns="http://www.w3.org/2000/svg" viewBox="0 0 24 24" id="telegram">
    <path d="M11.944 3.26667e-05C8.77112 0.0148396 5.73324 1.28566 3.4949 3.53449C1.25656 5.78332 -3.4549e-05 8.82711 7.12435e-10 12C7.12441e-10 15.1826 1.26428 18.2349 3.51472 20.4853C5.76516 22.7357 8.8174 24 12 24C15.1826 24 18.2348 22.7357 20.4853 20.4853C22.7357 18.2349 24 15.1826 24 12C24 8.81743 22.7357 5.76519 20.4853 3.51475C18.2348 1.26431 15.1826 3.26667e-05 12 3.26667e-05C11.9813 -1.08889e-05 11.9627 -1.08889e-05 11.944 3.26667e-05ZM16.906 7.22403C17.006 7.22203 17.227 7.24703 17.371 7.36403C17.4667 7.44713 17.5277 7.56311 17.542 7.68903C17.558 7.78203 17.578 7.99503 17.562 8.16103C17.382 10.059 16.6 14.663 16.202 16.788C16.034 17.688 15.703 17.989 15.382 18.018C14.686 18.083 14.157 17.558 13.482 17.116C12.426 16.423 11.829 15.992 10.804 15.316C9.619 14.536 10.387 14.106 11.062 13.406C11.239 13.222 14.309 10.429 14.369 10.176C14.376 10.144 14.383 10.026 14.313 9.96403C14.243 9.90203 14.139 9.92303 14.064 9.94003C13.958 9.96403 12.271 11.08 9.003 13.285C8.523 13.615 8.09 13.775 7.701 13.765C7.273 13.757 6.449 13.524 5.836 13.325C5.084 13.08 4.487 12.951 4.539 12.536C4.566 12.32 4.864 12.099 5.432 11.873C8.93 10.349 11.262 9.34403 12.43 8.85903C15.762 7.47303 16.455 7.23203 16.906 7.22403Z" fill="#FF5555"></path>
  </symbol>
  <symbol fill="none" xmlns="http://www.w3.org/2000/svg" viewBox="0 0 24 20" id="twitter">
    <path d="M21.543 4.85107C21.558 5.06207 21.558 5.27407 21.558 5.48707C21.558 11.9941 16.604 19.4971 7.548 19.4971V19.4941C4.87223 19.4977 2.25194 18.7312 0 17.2861C1.28916 17.4414 2.59629 17.3411 3.84665 16.9909C5.09702 16.6407 6.26608 16.0474 7.287 15.2451C6.25944 15.2256 5.26365 14.8855 4.43888 14.2723C3.61411 13.6591 3.0016 12.8035 2.687 11.8251C3.42468 11.9673 4.18515 11.9386 4.91 11.7411C3.79573 11.5158 2.79367 10.9121 2.07373 10.0324C1.3538 9.15258 0.96031 8.05087 0.96 6.91407V6.85207C1.64481 7.2337 2.41138 7.44497 3.195 7.46807C2.15247 6.77193 1.41442 5.70466 1.1311 4.48351C0.847781 3.26236 1.04049 1.97913 1.67 0.895068C2.90661 2.41622 4.44931 3.66028 6.19795 4.54649C7.94659 5.4327 9.86206 5.94123 11.82 6.03907C11.5761 4.98389 11.6865 3.87776 12.1342 2.89161C12.5818 1.90546 13.3418 1.0942 14.2967 0.583191C15.2515 0.0721868 16.3481 -0.110111 17.4169 0.0644712C18.4858 0.239053 19.4674 0.760796 20.21 1.54907C21.3132 1.33153 22.3711 0.927037 23.338 0.353068C22.9705 1.49354 22.2011 2.46162 21.173 3.07707C22.1488 2.96151 23.1017 2.70027 24 2.30207C23.3388 3.29085 22.5068 4.15399 21.543 4.85107Z" fill="#FF5555"></path>
  </symbol>
</svg>